<?xml version="1.0" standalone="no"?>
<!DOCTYPE svg PUBLIC "-//W3C//DTD SVG 20010904//EN"
        "http://www.w3.org/TR/2001/REC-SVG-20010904/DTD/svg10.dtd">
<svg version="1.0" xmlns="http://www.w3.org/2000/svg"
     width="512.000000pt" height="512.000000pt" viewBox="0 0 512.000000 512.000000"
     preserveAspectRatio="xMidYMid meet">

    <g transform="translate(0.000000,512.000000) scale(0.100000,-0.100000)"
       fill="#000000" stroke="none">
        <path d="M2384 5009 c-469 -35 -958 -228 -1326 -524 -599 -480 -938 -1173
-938 -1918 0 -95 5 -211 10 -257 52 -421 213 -817 478 -1173 98 -132 358 -392
492 -492 202 -151 445 -284 673 -369 358 -134 827 -166 1244 -87 130 25 278
69 408 121 90 36 327 153 367 181 14 11 29 19 33 19 12 0 130 84 230 163 311
247 582 599 739 960 137 315 196 590 196 912 0 331 -66 644 -206 971 -293 687
-918 1226 -1644 1418 -243 65 -526 93 -756 75z m372 -90 c555 -54 1073 -303
1476 -711 233 -237 390 -474 509 -769 213 -529 230 -1121 45 -1624 -177 -480
-511 -907 -926 -1184 -968 -648 -2174 -517 -2989 325 -346 357 -562 797 -643
1309 -19 126 -17 515 5 655 106 677 466 1237 1042 1620 95 64 368 210 391 210
5 0 42 14 83 30 149 61 395 119 581 139 123 12 300 13 426 0z"/>
        <path d="M2360 4869 c-451 -46 -906 -234 -1248 -515 -357 -294 -610 -661 -748
-1084 -60 -182 -84 -352 -84 -591 0 -269 26 -398 124 -604 51 -108 113 -206
214 -340 105 -139 91 -129 170 -115 100 18 372 8 490 -19 216 -48 440 -142
602 -251 71 -48 248 -189 298 -237 33 -32 143 -104 208 -137 243 -121 484 -72
685 141 76 81 112 135 216 328 162 300 255 401 498 541 55 31 123 74 150 94
49 36 135 123 135 136 0 15 -246 -5 -307 -24 -136 -43 -270 -143 -359 -268
-43 -60 -98 -174 -149 -311 -35 -92 -120 -259 -160 -313 -127 -174 -340 -260
-529 -216 -130 31 -212 84 -472 305 -172 146 -309 226 -485 285 -55 19 -103
36 -105 39 -3 3 21 13 52 23 53 16 144 72 284 173 106 77 223 76 344 -3 64
-41 466 -423 466 -443 0 -5 -22 -47 -49 -91 -61 -102 -87 -170 -66 -178 8 -3
18 -3 23 0 5 3 47 70 93 148 77 130 96 155 219 279 176 176 237 247 349 399
165 225 205 272 283 336 95 76 229 146 325 169 98 24 250 18 310 -12 24 -12
45 -18 48 -13 10 17 25 149 25 233 0 92 -15 253 -29 302 -8 30 -8 30 -39 -31
-34 -68 -115 -162 -167 -194 -18 -11 -85 -34 -148 -50 -63 -16 -135 -37 -158
-46 -78 -30 -196 -106 -255 -163 -74 -72 -111 -131 -167 -264 -112 -266 -296
-447 -485 -478 -123 -19 -209 13 -403 148 -63 44 -134 92 -159 106 -57 33
-149 57 -216 57 -77 0 -84 5 -84 59 0 64 50 162 112 222 48 46 48 47 24 53
-49 12 -120 -32 -165 -104 -16 -25 -44 -88 -61 -140 -18 -52 -46 -116 -62
-142 -57 -90 -175 -141 -316 -136 -76 3 -77 3 -80 31 -5 40 33 111 80 152 33
28 38 36 24 41 -35 13 -14 31 57 48 39 10 95 28 122 42 51 25 66 36 224 161
174 137 266 134 423 -16 42 -39 81 -71 87 -71 7 0 9 -5 5 -12 -5 -8 5 -9 37
-5 24 3 36 3 27 0 -10 -2 -18 -8 -18 -13 0 -4 9 -6 20 -3 11 3 20 8 20 12 0 3
15 6 33 7 34 1 122 12 122 15 0 1 10 3 23 4 12 1 22 -2 22 -6 0 -5 10 -5 23 0
27 10 87 9 105 -3 7 -4 70 -8 138 -7 81 1 123 -3 119 -9 -3 -5 0 -10 7 -10 7
0 24 -3 38 -6 22 -4 21 -3 -5 10 l-30 15 37 -5 c35 -6 40 -3 98 57 114 119
179 208 244 337 41 81 80 141 105 167 l41 39 0 -29 c0 -17 -9 -50 -20 -74 -15
-32 -16 -42 -6 -38 38 15 156 46 196 51 197 28 281 87 370 259 l34 65 -18 57
c-31 101 -144 311 -223 417 -272 366 -710 631 -1150 697 -118 18 -355 14 -485
-9 -432 -74 -813 -306 -1086 -659 -96 -124 -155 -229 -211 -373 -55 -142 -68
-191 -75 -271 -4 -48 -2 -58 9 -53 8 3 36 -1 64 -9 62 -19 107 -68 162 -177
104 -207 186 -277 313 -266 117 10 205 79 357 280 101 133 122 156 174 188 48
30 97 29 168 -4 32 -14 62 -26 68 -26 30 0 -46 121 -94 151 -21 12 -50 19 -86
19 -80 0 -124 -31 -236 -165 -92 -110 -166 -180 -227 -211 -44 -23 -118 -33
-170 -24 -116 22 -204 92 -281 225 -43 74 -45 79 -32 105 8 16 25 30 40 32 20
4 30 -2 51 -31 92 -124 167 -166 286 -159 51 2 87 11 119 27 52 26 62 35 195
162 81 77 97 88 146 99 123 28 231 -41 311 -198 25 -48 50 -105 57 -127 24
-78 92 -195 144 -248 174 -178 399 -191 626 -37 73 50 148 130 252 270 127
171 194 235 299 283 50 23 130 39 176 35 49 -4 46 -21 -6 -30 -55 -9 -124 -41
-172 -78 -21 -17 -95 -97 -165 -178 -326 -379 -551 -520 -765 -482 -130 24
-253 105 -370 247 -119 145 -183 193 -254 193 -76 0 -110 -26 -273 -207 -73
-81 -94 -98 -169 -135 -81 -40 -92 -43 -167 -42 -147 1 -233 52 -334 198 -62
89 -174 206 -197 206 -8 0 -15 5 -15 10 0 6 -7 10 -15 10 -21 0 -29 -60 -22
-184 12 -201 51 -369 127 -532 40 -87 63 -113 118 -140 70 -33 149 -132 176
-221 9 -28 -2 -29 -70 -7 -28 9 -103 18 -176 21 l-128 6 -26 34 c-41 54 -131
250 -159 348 -42 147 -55 245 -55 419 0 241 39 449 125 677 143 374 441 723
800 936 313 185 593 263 943 263 486 -1 911 -180 1291 -545 338 -325 531 -716
572 -1157 26 -280 -50 -626 -192 -873 -55 -95 -149 -224 -172 -237 -11 -5 -90
-30 -176 -55 -86 -24 -187 -61 -225 -81 -84 -44 -175 -132 -240 -232 -136
-208 -167 -249 -241 -325 -172 -175 -353 -259 -555 -259 -108 0 -178 18 -279
69 -111 55 -188 120 -396 329 -125 125 -229 221 -278 254 -146 101 -353 185
-520 212 -65 10 -234 14 -225 5 3 -3 33 -10 67 -16 164 -26 408 -135 545 -242
98 -77 128 -106 418 -404 199 -204 369 -304 569 -334 95 -15 210 -1 320 37
196 68 321 176 502 432 59 84 131 179 158 212 99 120 231 209 354 240 323 81
517 246 685 580 102 203 173 434 226 735 39 224 29 317 -62 555 -209 544 -630
1003 -1171 1274 -199 100 -456 180 -676 211 -135 19 -369 26 -487 14z m-247
-2118 c29 -11 134 -107 126 -115 -3 -4 -23 1 -45 11 -64 27 -167 23 -238 -10
-32 -15 -60 -27 -62 -27 -23 0 57 105 100 131 34 20 80 24 119 10z m1014 -437
c-3 -3 -12 -4 -19 -1 -8 3 -5 6 6 6 11 1 17 -2 13 -5z"/>
        <path d="M3058 2263 c6 -2 18 -2 25 0 6 3 1 5 -13 5 -14 0 -19 -2 -12 -5z"/>
        <path d="M3018 2223 c7 -3 16 -2 19 1 4 3 -2 6 -13 5 -11 0 -14 -3 -6 -6z"/>
        <path d="M2958 2183 c7 -3 16 -2 19 1 4 3 -2 6 -13 5 -11 0 -14 -3 -6 -6z"/>
        <path d="M4733 1920 c-91 -166 -226 -321 -388 -443 -116 -87 -330 -193 -509
-252 -77 -25 -162 -58 -190 -73 -75 -40 -166 -130 -291 -287 -164 -206 -269
-294 -434 -364 -326 -138 -664 -92 -1006 139 -91 62 -153 113 -330 275 -239
218 -371 313 -621 449 -129 70 -371 173 -381 162 -6 -5 69 -61 112 -83 62 -33
315 -205 401 -273 49 -40 159 -138 244 -219 261 -248 341 -316 455 -391 159
-104 296 -158 510 -202 80 -16 354 -16 429 1 270 59 428 163 646 421 101 119
135 154 233 233 80 65 139 93 270 126 164 43 227 68 372 151 64 36 195 142
261 212 97 101 150 193 230 402 19 49 33 90 32 92 -2 1 -22 -33 -45 -76z"/>
    </g>
</svg>
